<?xml version="1.0"?>
<svg id="Ebene_1" data-name="Ebene 1" xmlns="http://www.w3.org/2000/svg" viewBox="0 0 126.1 162.6">
  <defs>
    
  </defs>
  <path class="cls-2" d="M125.91,144.86l-25.7-52.07,15.82-8.4c3.28-1.74,4.87-5.56,3.78-9.12l-5.57-18.17,5.57-18.16c1.09-3.55-.49-7.38-3.78-9.13l-16.79-8.9-8.9-16.79c-1.74-3.28-5.57-4.88-9.12-3.78l-18.16,5.57L44.88.35c-3.56-1.1-7.38.49-9.12,3.78l-8.9,16.79-16.79,8.9c-3.28,1.75-4.87,5.57-3.78,9.13l5.57,18.16-5.57,18.17c-1.09,3.55.49,7.38,3.78,9.12l15.83,8.4L.19,144.86c-.33.66-.23,1.46.26,2.02.49.56,1.27.77,1.97.53l21.03-7.02,7.21,20.96c.16.47.5.84.93,1.05.22.11.45.17.7.19.74.05,1.44-.36,1.77-1.02l25.82-52.31s.37-.97,3.17-.97,3.17.97,3.17.97l25.81,52.31c.33.66,1.03,1.07,1.77,1.02.25-.02.49-.08.7-.19.43-.21.77-.58.93-1.05l7.21-20.96,21.03,7.02c.7.23,1.49.02,1.97-.53.49-.56.59-1.36.27-2.02Z"></path>
  <g>
    <path class="cls-1" d="M30.18,72.83c1.29,1.43,2.6,2.86,4.03,4.14,1.98,1.79,4.17,3.3,6.5,4.62,3.23,1.82,6.65,3.16,10.25,4.02,1.35.32,2.72.59,4.12.7,1.09.08,2.18.27,3.27.29,1.57.03,3.13.04,4.7-.11,1.42-.13,2.83-.3,4.23-.58,3.06-.6,6.02-1.55,8.85-2.87,3.22-1.5,6.21-3.37,8.9-5.7,1.78-1.54,3.43-3.19,4.9-5.01,2.14-2.66,3.95-5.53,5.28-8.68.53-1.25.98-2.54,1.45-3.82.58-1.59.97-3.24,1.26-4.91.25-1.45.45-2.93.53-4.4.09-1.59.02-3.2.02-4.79,0-.19-.06-.39-.1-.58-.08.2-.18.39-.22.6-.44,2.14-1.09,4.22-1.87,6.26-1.91,5.02-4.7,9.52-8.28,13.52-1.78,1.99-3.76,3.8-5.9,5.4-3.83,2.89-8.03,5.1-12.6,6.59-2.65.86-5.35,1.51-8.13,1.83-1.2.14-2.39.3-3.6.31-2.42.03-4.83.03-7.24-.31-1.46-.21-2.91-.46-4.35-.78-1.89-.43-3.73-1.02-5.55-1.71-3.58-1.35-6.91-3.16-10.01-5.4-1-.72-1.96-1.5-2.94-2.25-.03.03-.06.07-.09.11.09.17.15.36.26.51.76,1.01,1.48,2.06,2.32,2.99Z"></path>
    <path class="cls-1" d="M43.37,57.13c1.32,2.26,3,4.2,5.09,5.77,3.89,2.94,8.35,4.21,13.17,4.32,1.43.03,2.84-.11,4.26-.28,1.63-.19,3.23-.53,4.79-1.03,4-1.28,7.22-3.61,9.62-7.06.57-.82.56-.82-.38-1.26-2.27-1.07-4.55-2.14-6.81-3.22-.81-.39-.81-.41-1.49.14-2.21,1.8-4.68,2.98-7.54,3.34-1.96.25-3.89.21-5.77-.38-3.54-1.11-6.04-3.35-7.22-6.93-.17-.52-.29-1.05-.41-1.58-.07-.3.01-.38.33-.4.19,0,.39,0,.58,0,5.18,0,10.36,0,15.54,0,5.18,0,10.36,0,15.54,0,.22,0,.45.02.66-.01.1-.02.22-.14.25-.23.05-.12.02-.27.02-.41.02-2.33-.03-4.66-.5-6.97-.38-1.88-.92-3.7-1.75-5.43-1.75-3.62-4.43-6.38-7.85-8.44-3.29-1.98-6.88-2.89-10.7-2.99-1.21-.03-2.41-.02-3.62.12-1.36.15-2.71.38-4.01.78-4.5,1.36-8.07,4.04-10.77,7.85-2.45,3.46-3.69,7.35-3.86,11.58-.08,2.09-.06,4.18.37,6.24.47,2.28,1.25,4.46,2.44,6.49ZM51.3,40.14c.39-1.01.94-1.93,1.61-2.76,1.8-2.28,4.11-3.75,7.02-4.21,2.52-.4,4.97-.22,7.32.83,2.79,1.25,4.76,3.28,5.83,6.16.08.21.06.31-.17.32-.22,0-.44,0-.66,0-3.36,0-6.73,0-10.09,0-3.36,0-6.73,0-10.09,0-.19,0-.39,0-.58,0-.32.01-.26-.13-.18-.35Z"></path>
  </g>
</svg>