<?xml version="1.0"?>
<svg xmlns="http://www.w3.org/2000/svg" version="1.1" viewBox="0 0 470 360.9">
  <path fill="#fff" d="M246.2,223.1s-10.3-16.5-13.8-49.4c-1.8-17-.5-37,7.5-52,1.2-2.3,2.5-4.7,3.8-7,.7-1,1.3-1.8,2-2.8-12.2-10.7-22.3-19.2-28.7-24-12.2-9.3-14.2-12-33.7-20-24.9-10.2-45.7-44.7-56-40s2.3,27.5,0,52.7S26.5,197.2,28.9,233.8c2.3,36.7,20.5,25.2,36.7,25.2s112.2-50.5,112.2-50.5c0,0,9.3,25.7,19.8,53.5,13.3-10.7,26.4-24.9,48.5-28.5v-10.3h0Z"></path>
  <path fill="#fff" d="M440.2,328c-1.8-32-21.8-50-42-60.2-15.2-12.3-33.9-18.2-46.2-20.8v-11.5s19-16.2,23.5-42.2c4.3-25,.2-63.5-32.2-75.7-6.5-2.3-14-3.8-22.8-3.8-24.5,0-39.5,9.5-48.4,23-1.3,2-2.5,4.2-3.5,6.3-7.3,13.7-9.2,32.2-6.8,47.5,4.2,27.9,23.3,44.7,23.3,44.7v14.2c-32.9,0-52,16.7-64.2,30.9-4.2,4.8-7.5,10.2-10.3,15.2-5.3,10-7.8,20.2-8.8,27.4-1,6.5-.8,10.7-.8,10.7h240.3c-.3-1.2-.8-4-1-5.5Z"></path>
</svg>